<svg xmlns="http://www.w3.org/2000/svg" width="89" height="89" viewBox="0 0 89 89">
  <g id="Grupo_3779" data-name="Grupo 3779" transform="translate(-62 -267)">
    <circle id="Elipse_4" data-name="Elipse 4" cx="44.5" cy="44.5" r="44.5" transform="translate(62 267)" fill="#3756a8"/>
    <g id="mic" transform="translate(90 289)">
      <path id="Caminho_1334" data-name="Caminho 1334" d="M12.9,28.957a7.9,7.9,0,0,0,7.9-7.9V7.9A7.9,7.9,0,0,0,5,7.9V21.06A7.9,7.9,0,0,0,12.9,28.957Z" transform="translate(3.265)" fill="#fff"/>
      <path id="Caminho_1335" data-name="Caminho 1335" d="M29.325,11.265V6H26.692v4.854a10.8,10.8,0,0,1-8.329,10.717A10.548,10.548,0,0,1,5.632,11.265V6H3v5.265a13.187,13.187,0,0,0,10.53,12.9v5.531H8.265v2.632H24.06V29.692H18.795V24.161A13.187,13.187,0,0,0,29.325,11.265Z" transform="translate(0 9.795)" fill="#fff"/>
    </g>
  </g>
</svg>
