<svg xmlns="http://www.w3.org/2000/svg" width="89" height="89" viewBox="0 0 89 89">
  <g id="Grupo_3782" data-name="Grupo 3782" transform="translate(-176 -296)">
    <g id="Grupo_3779" data-name="Grupo 3779" transform="translate(114 29)">
      <circle id="Elipse_4" data-name="Elipse 4" cx="44.5" cy="44.5" r="44.5" transform="translate(62 267)" fill="#3756a8"/>
    </g>
    <g id="send" transform="matrix(1, 0.017, -0.017, 1, 192.316, 314.443)">
      <g id="Grupo_3780" data-name="Grupo 3780" transform="translate(1.126 2.127)">
        <path id="Caminho_1334" data-name="Caminho 1334" d="M2.428,25.445c-1.8.943-1.724,2.323.163,3.073l5.582,2.209a7.161,7.161,0,0,0,6.34-.913L38.76,10.693c1.595-1.256,1.766-1.07.38.413L19.971,31.622a2.317,2.317,0,0,0,.913,4.024l.654.256c1.892.73,4.978,1.961,6.856,2.725l6.193,2.524c1.88.763,3.418,1.4,3.422,1.409s.01.046.02.05.453-1.6.986-3.553L48.453,4.362c.533-1.958-.5-2.789-2.3-1.847Z" transform="translate(-1.126 -2.127)" fill="#fff"/>
      </g>
      <g id="Grupo_3781" data-name="Grupo 3781" transform="translate(13.609 35.948)">
        <path id="Caminho_1335" data-name="Caminho 1335" d="M12.792,34.714c-.111.33,3.818-5.69,3.818-5.69a2.937,2.937,0,0,0-1.4-4.485l-4.284-1.756c-1.878-.768-2.778.133-2,2.011C8.929,24.8,12.905,34.375,12.792,34.714Z" transform="translate(-8.649 -22.509)" fill="#fff"/>
      </g>
    </g>
  </g>
</svg>
